<?xml version="1.0" standalone="no"?>
<!DOCTYPE svg PUBLIC "-//W3C//DTD SVG 20010904//EN"
 "http://www.w3.org/TR/2001/REC-SVG-20010904/DTD/svg10.dtd">
<svg version="1.0" xmlns="http://www.w3.org/2000/svg"
 width="750.000000pt" height="750.000000pt" viewBox="0 0 750.000000 750.000000"
 preserveAspectRatio="xMidYMid meet">
<metadata>
Created by potrace 1.14, written by Peter Selinger 2001-2017
</metadata>
<g transform="translate(0.000000,750.000000) scale(0.100000,-0.100000)"
fill="#000000" stroke="none">
<path d="M2726 6099 c-200 -33 -374 -170 -450 -354 -9 -21 -42 -64 -73 -94
-70 -69 -125 -153 -155 -239 -19 -56 -23 -87 -23 -192 0 -114 3 -133 31 -210
34 -97 106 -224 177 -311 26 -33 47 -63 47 -69 0 -33 -56 -122 -110 -174 -78
-76 -135 -188 -151 -296 -19 -123 -3 -429 31 -631 34 -194 94 -483 115 -549
32 -102 125 -602 160 -863 16 -115 39 -200 69 -255 9 -15 27 -58 41 -96 54
-147 156 -276 261 -327 55 -27 76 -32 137 -32 107 0 175 29 257 112 37 36 73
77 82 91 l16 25 109 -37 c419 -142 937 -127 1260 36 81 40 211 131 271 189 61
59 128 150 167 227 18 36 45 76 60 90 40 36 107 127 144 191 120 213 134 527
35 801 -52 143 -60 187 -49 255 10 61 10 61 75 105 97 65 120 105 141 240 9
65 13 123 9 138 -53 172 -61 559 -20 885 32 250 36 641 7 745 -51 189 -174
322 -341 366 -102 27 -253 11 -346 -36 -102 -52 -193 -156 -229 -263 -15 -43
-22 -52 -42 -52 -13 1 -91 43 -174 94 -247 155 -499 272 -784 365 -77 25 -156
46 -176 46 -20 0 -80 13 -133 30 -103 31 -280 61 -353 59 -24 -1 -66 -5 -93
-10z m286 -209 c48 -10 117 -28 154 -39 36 -12 83 -21 104 -21 79 0 428 -128
644 -237 184 -93 459 -270 625 -403 54 -44 101 -80 104 -80 2 0 2 74 -1 165
-6 190 2 228 57 301 73 97 190 139 306 109 68 -18 114 -50 156 -108 50 -69 61
-124 66 -322 4 -154 1 -216 -24 -425 -24 -211 -28 -282 -28 -510 0 -251 2
-273 29 -408 28 -140 28 -144 11 -188 -25 -67 -79 -99 -164 -99 -76 0 -135 28
-190 90 -66 76 -124 228 -156 410 -17 97 -19 102 -81 181 -170 219 -451 420
-759 542 -91 36 -350 122 -368 122 -5 0 156 -163 356 -362 659 -655 995 -1040
1097 -1252 37 -78 127 -346 145 -434 26 -120 13 -312 -27 -420 -61 -164 -208
-317 -393 -410 -156 -78 -404 -120 -640 -108 -212 10 -458 70 -622 152 -59 30
-110 51 -114 46 -4 -4 -12 -25 -19 -47 -31 -98 -84 -175 -149 -217 -83 -52
-162 -28 -236 73 -39 54 -85 151 -85 182 0 7 -10 28 -21 47 -35 56 -49 108
-65 230 -36 277 -76 486 -155 806 -86 350 -154 805 -154 1034 0 166 12 214 73
295 53 71 123 105 216 105 118 0 201 -52 246 -152 31 -70 85 -291 130 -535 93
-498 141 -675 236 -866 62 -127 117 -199 242 -318 106 -101 112 -106 178 -122
162 -38 432 -46 609 -17 123 20 186 69 200 156 11 72 -66 266 -144 364 -333
416 -847 971 -1071 1155 -408 335 -788 764 -870 982 -81 216 -7 444 173 533
110 54 199 59 379 20z m551 -2542 c101 -112 215 -239 253 -283 37 -44 93 -109
123 -144 l56 -63 -75 7 c-128 12 -158 22 -217 73 -131 112 -211 242 -292 475
-40 115 -46 137 -37 137 3 0 88 -91 189 -202z"/>
</g>
</svg>
